<svg width="1920" height="397" viewBox="0 0 1920 397" fill="none" xmlns="http://www.w3.org/2000/svg">
<path fill-rule="evenodd" clip-rule="evenodd" d="M0 0L80 66.3102C160 132.62 320 264.38 480 305.716C640 347.052 800 297.965 960 248.017C1120 198.931 1280 148.983 1440 148.983C1600 148.983 1760 198.931 1840 223.043L1920 248.017V397H1840C1760 397 1600 397 1440 397C1280 397 1120 397 960 397C800 397 640 397 480 397C320 397 160 397 80 397H0V0Z" fill="url(#paint0_linear_280_4)" fill-opacity="0.12"/>
<defs>
<linearGradient id="paint0_linear_280_4" x1="1437" y1="344" x2="960" y2="344" gradientUnits="userSpaceOnUse">
<stop stop-color="#E0C3FC"/>
<stop offset="1" stop-color="#8EC5FC"/>
</linearGradient>
</defs>
</svg>
