<svg version="1.2" xmlns="http://www.w3.org/2000/svg" viewBox="0 0 512 512" width="512" height="512">
	<title>New Project</title>
	<style>
		.s0 { opacity: 1;fill: #010002 } 
	</style>
	<path id="Path 0" class="s0" d="m241.09 52.75c-7.14 21.86-20 61.35-28.57 87.75-8.58 26.4-16.26 49.01-17.06 50.25-0.8 1.24-2.92 3.04-4.71 4-3.02 1.63-9.88 1.77-96.12 2.02-55.94 0.16-93.32 0.64-94 1.21-0.83 0.68-0.72 1.39 0.37 2.62 0.83 0.92 34.13 25.42 74 54.43 39.88 29.01 73.63 53.97 75 55.46 1.83 1.99 2.59 4.08 2.86 7.86 0.31 4.54-3.02 15.45-28 91.9-22.56 69.01-28.11 87.01-27.12 88 0.93 0.94 1.79 0.98 3.5 0.15 1.24-0.61 34.44-24.49 73.76-53.08 39.32-28.59 72.96-52.73 74.75-53.65 1.79-0.92 4.6-1.67 6.25-1.67 1.65 0 4.46 0.75 6.25 1.67 1.79 0.92 35.31 24.99 74.5 53.5 39.19 28.51 72.38 52.39 73.76 53.08 2.01 1 2.77 1 3.75 0.01 0.99-0.99-4.56-19.03-27.04-88-21.16-64.94-28.26-87.95-28.25-91.51 0.02-3.73 0.62-5.43 2.78-7.91 1.51-1.73 34.02-25.87 72.25-53.63 38.23-27.76 71.41-51.99 73.75-53.84 2.34-1.85 4.1-3.93 3.92-4.62-0.27-0.98-20.2-1.36-93.75-1.75-86.5-0.46-93.66-0.63-96.67-2.25-1.79-0.96-3.91-2.76-4.71-4-0.8-1.24-8.48-23.85-17.06-50.25-8.57-26.4-21.42-65.89-28.54-87.75-11.23-34.51-13.2-39.75-14.91-39.75-1.71 0-3.69 5.25-14.94 39.75z"/>
</svg>