<svg width="1920" height="288" viewBox="0 0 1920 288" fill="none" xmlns="http://www.w3.org/2000/svg">
<path fill-rule="evenodd" clip-rule="evenodd" d="M1920 230.4H1856C1792 230.4 1664 230.4 1536 201.6C1408 172.8 1280 115.2 1152 96C1024 76.8 896 96 768 134.4C640 172.8 512 230.4 384 259.2C256 288 128 288 64 288H0V0H64C128 0 256 0 384 0C512 0 640 0 768 0C896 0 1024 0 1152 0C1280 0 1408 0 1536 0C1664 0 1792 0 1856 0H1920V230.4Z" fill="url(#paint0_linear_280_2)" fill-opacity="0.12"/>
<defs>
<linearGradient id="paint0_linear_280_2" x1="1550.5" y1="71.9999" x2="462.5" y2="77.4999" gradientUnits="userSpaceOnUse">
<stop stop-color="#8EC5FC"/>
<stop offset="1" stop-color="#E0C3FC"/>
</linearGradient>
</defs>
</svg>
